# xmcd CD database file
#
# Track frame offsets:
#	150
#	20972
#	69205
#	81291
#	93259
#	126870
#	146828
#	177569
#	197395
#	221832
#
# Disc length: 3378 seconds
#
# Revision: 0
# Processed by: cddbd v1.5.2PL0 Copyright (c) Steve Scherf et al.
# Submitted via: CDex 1.50
#
DISCID=930d300a
DTITLE=Jan Garbarek - Live at the Tempodrom Berlin CD2
DYEAR=2002
DGENRE=Jazz
TTITLE0=01-Part 1
TTITLE1=02-Part 2
TTITLE2=03-Part3
TTITLE3=04-Part 4
TTITLE4=05-Part 5
TTITLE5=06-Part 6
TTITLE6=07-Part 7
TTITLE7=08-Part 8
TTITLE8=09-Part 9
TTITLE9=10-Part 10
EXTD=YEAR: 2002
EXTT0=
EXTT1=
EXTT2=
EXTT3=
EXTT4=
EXTT5=
EXTT6=
EXTT7=
EXTT8=
EXTT9=
PLAYORDER=
